<svg width="33" height="33" viewBox="0 0 33 33" fill="none" xmlns="http://www.w3.org/2000/svg">
<g clip-path="url(#clip0_0_492)">
<path d="M32.5 16.5C32.5 7.66344 25.3366 0.5 16.5 0.5C7.66344 0.5 0.5 7.66344 0.5 16.5C0.5 25.3366 7.66344 32.5 16.5 32.5C25.3366 32.5 32.5 25.3366 32.5 16.5Z" fill="#242424"/>
<path d="M19.3486 11.0519C19.6504 10.7033 19.8805 10.2985 20.0258 9.86056C20.171 9.42264 20.2285 8.96029 20.1949 8.50006C19.2683 8.57501 18.4082 9.01167 17.7998 9.71598C17.5085 10.0535 17.2877 10.4462 17.1506 10.8708C17.0135 11.2954 16.9628 11.7432 17.0015 12.1878C17.4535 12.1916 17.9002 12.0911 18.3073 11.8941C18.7143 11.6971 19.0706 11.409 19.3486 11.0519ZM21.3604 17.0035C21.3658 16.3905 21.5269 15.789 21.8286 15.2558C22.1304 14.7225 22.5627 14.2751 23.0849 13.9557C22.7553 13.4799 22.3197 13.0876 21.8125 12.8099C21.3053 12.5322 20.7405 12.3767 20.1629 12.3558C18.9175 12.2278 17.7679 13.0838 17.1053 13.0838C16.4426 13.0838 15.5086 12.3718 14.4707 12.3878C13.7922 12.4102 13.1311 12.6084 12.5519 12.9631C11.9726 13.3178 11.495 13.8169 11.1656 14.4117C9.7605 16.8595 10.8063 20.4993 12.2114 22.4751C12.8501 23.4431 13.6484 24.539 14.7023 24.499C15.7561 24.459 16.0994 23.843 17.3208 23.843C18.5423 23.843 18.9175 24.499 19.9554 24.475C20.9932 24.451 21.7277 23.4831 22.3983 22.5151C22.8733 21.8124 23.2444 21.0445 23.5 20.2353C22.8673 19.9649 22.3275 19.5148 21.9473 18.9404C21.567 18.3661 21.363 17.6927 21.3604 17.0035Z" fill="white"/>
</g>
<defs>
<clipPath id="clip0_0_492">
<rect width="32" height="32" fill="white" transform="translate(0.5 0.5)"/>
</clipPath>
</defs>
</svg>
