<svg width="19" height="19" viewBox="0 0 19 19" fill="none" xmlns="http://www.w3.org/2000/svg">
<path d="M12.1819 3.8852C12.4837 3.53665 12.7138 3.13179 12.859 2.69387C13.0042 2.25596 13.0617 1.79361 13.0281 1.33337C12.1015 1.40832 11.2414 1.84498 10.6331 2.54929C10.3418 2.88685 10.121 3.27955 9.98387 3.70413C9.84674 4.12872 9.79603 4.57655 9.83473 5.02113C10.2867 5.0249 10.7335 4.92441 11.1405 4.72744C11.5475 4.53046 11.9038 4.24228 12.1819 3.8852ZM14.1937 9.83681C14.199 9.22384 14.3602 8.62234 14.6619 8.08909C14.9636 7.55583 15.3959 7.1084 15.9181 6.78901C15.5886 6.31323 15.1529 5.92094 14.6457 5.64323C14.1386 5.36552 13.5738 5.21004 12.9962 5.18912C11.7508 5.06113 10.6011 5.91707 9.93852 5.91707C9.27589 5.91707 8.34183 5.20512 7.30398 5.22112C6.62549 5.24351 5.96438 5.44173 5.38512 5.79643C4.80586 6.15113 4.32824 6.65021 3.99884 7.24498C2.59375 9.69282 3.63958 13.3326 5.04467 15.3084C5.68335 16.2764 6.48169 17.3723 7.5355 17.3323C8.58932 17.2923 8.9326 16.6764 10.1541 16.6764C11.3755 16.6764 11.7508 17.3323 12.7886 17.3083C13.8265 17.2843 14.5609 16.3164 15.2315 15.3484C15.7066 14.6457 16.0777 13.8778 16.3333 13.0686C15.7005 12.7982 15.1607 12.3481 14.7805 11.7737C14.4003 11.1994 14.1963 10.526 14.1937 9.83681Z" fill="white"/>
</svg>
